<svg id="Calque_2" data-name="Calque 2" xmlns="http://www.w3.org/2000/svg" xmlns:xlink="http://www.w3.org/1999/xlink"
	viewBox="0 0 1437.53 712.77">
	<defs>
		<style>
			.cls-1 {
				opacity: 0.1;
				font-size: 100px;
				fill: #999;
				font-family: Raleway-Black, Raleway;
				font-weight: 800;
			}

			.cls-2 {
				letter-spacing: -0.01em;
			}

			.cls-3 {
				letter-spacing: -0.06em;
			}

			.cls-4,
			.cls-5 {
				fill: none;
			}

			.cls-4 {
				stroke: #b3b3b3;
				stroke-miterlimit: 10;
				stroke-width: 2px;
			}

			.cls-5 {
				stroke-linecap: round;
				stroke-linejoin: round;
				stroke-width: 4px;
				stroke: url(#Dégradé_sans_nom_4);
			}

			.cls-6 {
				fill: #f15a24;
			}

			.cls-7 {
				fill: #ed1c24;
			}

			.cls-8 {
				fill: #c1272d;
			}

			.cls-9 {
				fill: #f7931e;
			}

			.cls-10 {
				font-size: 30px;
				font-family: Raleway-Bold, Raleway;
				font-weight: 700;
			}

			.cls-10,
			.cls-20 {
				fill: #666;
			}

			.cls-11 {
				letter-spacing: 0em;
			}

			.cls-12 {
				letter-spacing: -0.03em;
			}

			.cls-13 {
				letter-spacing: -0.03em;
			}

			.cls-14 {
				letter-spacing: -0.01em;
			}

			.cls-15 {
				letter-spacing: -0.03em;
			}

			.cls-16 {
				letter-spacing: -0.02em;
			}

			.cls-17 {
				letter-spacing: -0.07em;
			}

			.cls-18 {
				letter-spacing: -0.06em;
			}

			.cls-19 {
				letter-spacing: -0.03em;
			}

			.cls-20 {
				font-size: 22px;
				font-family: Raleway-Regular, Raleway;
			}

			.cls-21 {
				letter-spacing: -0.02em;
			}

			.cls-22 {
				letter-spacing: 0em;
			}
		</style>
		<linearGradient id="Dégradé_sans_nom_4" x1="141.95" y1="337.06" x2="1172.54" y2="337.06"
			gradientUnits="userSpaceOnUse">
			<stop offset="0" stop-color="#f7931e" />
			<stop offset="1" stop-color="#c1272d" />
		</linearGradient>
	</defs>

	<text class="cls-1" transform="translate(649.24 172.02)">QUEBEC</text>

	<text class="cls-1" transform="translate(3.22 705.77)">ONTARIO</text>
	<path class="cls-4"
		d="M80.47,0V201.46s-10.88,19.36-9.67,24.2,21.77,20.56,20.56,29-7.15,42.35,0,48.4,14.47,3.62,14.47,13.3,7.26,26.62,16.94,27.83,4.84,24.2,16.94,27.83,7.26,30.24,14.51,33.87,23,27.83,29,27.83S202.67,453.1,222,449.48s64.12,0,65.33,8.46,83.48,24.2,83.48,38.72,43.55,55.65,48.39,52-9.68-32.66,0-29,32.66,6.05,29,18.14-8.91,23,.38,27.83,15.34,16.94,5.66,24.2,37.51,25.4,50.82,20.56,23-23,38.71-10.88-2.42,21.77,18.15,24.19,70.17-44.76,88.32-38.71,23-25.41,41.13-20.57,58.07,6.05,59.28,16.94-12.09,48.39,0,59.28,4.84,65.39,14.52,66.6,370.21,0,370.21,0-10.89-70.23,10.89-65.39,35.09,10.89,42.35-2.42,19.35-21.78,32.66-8.47,2.42-24.2,15.73-21.78,0-31.45,9.68-36.29,36.29-44.77,44.76-44.77-2.42-64.12,7.26-75,21.78-4.83,30.25-48.39S1436.7,216,1436.7,216" />

	<path class="cls-5 trajet"
		d="M144,68.94s33.31,13.8,38.15,9,60.49-9.32,71.38-4,15.73,18.61,25.41,18.61,82.27-4.84,82.27,6.05,15.72,90.74,27.82,98,3.63,27.83,12.1,31.46,26.62,29,32.67,30.24,30.24,18.15,31.45,29,12.1,15.73,12.1,24.19,12.1,6.74,13.31,23.34,33.87,9.38,33.87,15.4,16.94,29,21.78,29,29,7.26,25.41,15.73-2.42,18.15-7.26,26.62-13.31,25.41-9.68,32.66,9.68,24.2,7.26,27.83-7.26,25.41-4.84,31.46,4.84,19.35-2.42,23-10.89,25.41-4.84,35.09,15.74,42.68,37.18,36.54c0,0,33.95-28.17,48-20.86s43.07-22.94,54-16.89,55.66,3.63,61.7,10.89,42.35,18.64,48.4,17.18,53-9.63,65,0c0,0,42.66-24.44,62-25.65s27.83-4.84,76.22-52,59.28-78.64,70.17-82.27,73.8-75,98-88.3c0,0-46,12.69-64.12,15.41s-27.83-8.77-35.09,0-12.1,20.86-24.2,20.86-13.3,23.16-19.35,24.89-41.14,11.41-43.56,16.25,0,12.1-24.19,21.78-52,27.82-52,36.29-6,31.46-13.3,35.09-30.57,46.86-30.57,62.26S807.59,568,804,543.84,790.65,533,787,522.07s-2.42-23-9.68-25.41-21.87-13.31-23.64-13.31-22.33,7.26-34.43-6.05-7.26-35.08-18.15-43.55-12.45-26.62-21.35-27.83-23.41,6.05-45.19-8.47-27.83,3.63-37.5-2.42-5.25,13.31-29.44-12.9c-20.17-10.08-16.14-7.66-19.76-8.47s-17.35-17.34-20.57-28.23c-4.44-6.48-28.63,3.23-34.68-21-2-7.26-12.1-5.65-11.3-22.18,0,0-12.09-12.1-11.69-26.62,0,0-13.31-18.15-33.47-23.79-10.89-8.07-21-25.41-25.81-26.62s-8.47-29.84-13.31-34.28-11.7,1.21-21.78-44.36-4.84-46-8.87-52.42-53.23-12.91-82.67-7.67c-8.07.81-9.28,0-14.92-6.85s-14.12-14.52-33.48-14.52-50.41,3.23-54,6.45S144,68.94,144,68.94Z" />


	<circle class="cls-6" cx="587.07" cy="608.21" r="15.41" />
	<circle class="cls-7" cx="864.13" cy="598.53" r="15.41" />
	<circle class="cls-8" cx="1170.54" cy="350.29" r="15.41" />
	<circle class="cls-9" cx="143.95" cy="68.94" r="9.04" />

	<text class="cls-10 map_rouyn" transform="translate(25.73 42.46)">ROUYN-NORANDA</text>

	<text class="cls-10 map_quebec" transform="translate(1108.15 305.89)">QUEBEC</text>

	<text class="cls-10 map_montreal" transform="translate(782.55 650.96)">MONTREAL</text>

	<text class="cls-10 map_ottawa" transform="translate(523.66 660)">OTTAWA</text>

	<text class="cls-20 date_ottawa" transform="translate(511.92 686.77)">2 jours - 2 nuits</text>

	<text class="cls-20 date_montreal" transform="translate(784.77 675.35)">4 jours - 3 nuits</text>

	<text class="cls-20 date_quebec" transform="translate(788.91 700.25)">+ 1 jour - 1 nuit</text>

	<text class="cls-20 date_montreal2" transform="translate(1092.9 328.13)">2 jours - 2 nuits</text>
</svg>